<?xml version="1.0" standalone="no"?>
<!DOCTYPE svg PUBLIC "-//W3C//DTD SVG 20010904//EN"
 "http://www.w3.org/TR/2001/REC-SVG-20010904/DTD/svg10.dtd">
<svg version="1.0" xmlns="http://www.w3.org/2000/svg"
 width="400.000000pt" height="400.000000pt" viewBox="0 0 400.000000 400.000000"
 preserveAspectRatio="xMidYMid meet">
<metadata>
Created by potrace 1.11, written by Peter Selinger 2001-2013
</metadata>
<g transform="translate(0.000000,400.000000) scale(0.100000,-0.100000)"
fill="#000000" stroke="none">
<path d="M0 2000 l0 -2000 2000 0 2000 0 0 2000 0 2000 -2000 0 -2000 0 0
-2000z m3379 1765 c16 -14 33 -35 36 -46 10 -30 -14 -78 -47 -95 -15 -8 -184
-67 -374 -130 -315 -105 -349 -114 -376 -103 -37 15 -58 46 -58 85 0 61 13 68
390 194 195 66 365 119 377 120 12 0 35 -11 52 -25z m-1385 -418 c23 -31 26
-42 28 -156 l3 -124 52 -13 c158 -40 270 -147 324 -306 18 -55 19 -97 19
-1103 l0 -1047 -29 -29 -29 -29 -595 0 -594 0 -26 26 c-18 18 -28 41 -32 77
-4 29 -5 504 -3 1057 l3 1005 24 60 c31 77 66 128 129 187 58 54 154 102 222
110 25 3 25 3 30 135 5 122 7 133 29 157 l24 26 198 0 198 0 25 -33z m1579
-87 c36 -40 35 -78 -4 -116 l-30 -29 -357 -3 c-256 -2 -364 1 -384 9 -61 25
-77 94 -33 142 l26 27 378 0 378 0 26 -30z m-555 -355 c294 -98 351 -120 375
-146 31 -34 33 -48 12 -89 -18 -34 -43 -50 -79 -50 -44 0 -719 229 -743 252
-52 49 -13 148 57 148 18 0 188 -52 378 -115z"/>
<path d="M1707 3194 c-11 -11 -8 -109 3 -120 5 -5 35 -7 67 -4 l58 5 0 60 0
60 -60 3 c-34 2 -64 0 -68 -4z"/>
<path d="M1509 2881 c-51 -10 -124 -56 -152 -94 -34 -44 -60 -104 -52 -116 4
-8 155 -11 466 -11 447 0 459 0 459 19 0 54 -73 146 -144 183 -38 20 -60 22
-291 24 -137 1 -266 -1 -286 -5z"/>
<path d="M1300 1600 l0 -880 470 0 470 0 0 880 0 880 -470 0 -470 0 0 -880z"/>
</g>
</svg>
